<svg xmlns="http://www.w3.org/2000/svg" xmlns:xlink="http://www.w3.org/1999/xlink" viewBox="0 0 119.41 52.22"><defs><style>.cls-1{fill:#b2b2b2;}.cls-2{fill:#6669b3;}.cls-3{fill:#f4ba4b;}.cls-4{fill:#757575;}.cls-5{fill:#3b3f63;}.cls-6{fill:#0a1136;}.cls-7{fill:url(#radial-gradient);}.cls-8{fill:url(#radial-gradient-2);}</style><radialGradient id="radial-gradient" cx="36.09" cy="65.84" r="19.87" gradientTransform="translate(1.77 -0.74) rotate(1.53)" gradientUnits="userSpaceOnUse"><stop offset="0" stop-color="#00ff3b" stop-opacity="0"/><stop offset="1" stop-color="#00ff3b" stop-opacity="0.5"/></radialGradient><radialGradient id="radial-gradient-2" cx="34.01" cy="67.1" r="5.41" gradientTransform="matrix(0.71, 0.02, -0.02, 0.73, 13.49, 18.64)" gradientUnits="userSpaceOnUse"><stop offset="0" stop-color="#009437" stop-opacity="0.5"/><stop offset="1" stop-color="#009422" stop-opacity="0.7"/></radialGradient></defs><title>goo-explorer</title><g id="Layer_2" data-name="Layer 2"><rect class="cls-1" x="68.59" y="21.24" width="43.79" height="12.25"/><polygon class="cls-1" points="80.67 16.51 75.21 16.51 72.49 21.24 75.21 25.96 80.67 25.96 83.4 21.24 80.67 16.51"/><polygon class="cls-1" points="115.64 22.6 110.18 22.6 107.45 27.32 110.18 32.05 115.64 32.05 118.37 27.32 115.64 22.6"/><rect class="cls-1" x="76.2" y="10.13" width="3.58" height="6.39"/><rect class="cls-1" x="71.38" width="13.09" height="10.13"/><polygon class="cls-2" points="78.15 6.75 78.15 3.38 75.23 1.69 72.31 3.38 72.31 6.75 75.23 8.44 78.15 6.75"/><rect class="cls-3" x="98.11" y="16.92" width="9.35" height="4.33"/></g><g id="Layer_3" data-name="Layer 3"><polygon class="cls-4" points="108.98 37.44 91.94 27.32 91.63 25.41 111.27 37.07 108.98 37.44"/><polygon class="cls-4" points="92.17 36.64 99.42 32.09 100.8 33.11 93.54 37.44 92.17 36.64"/><polygon class="cls-4" points="71.11 35.38 88.42 25.96 88.53 27.71 72.31 36.5 71.11 35.38"/><polygon class="cls-4" points="60.6 33.28 76.7 24.48 76.8 26.23 61.67 34.35 60.6 33.28"/><polygon class="cls-4" points="93.41 28.27 93.41 24.89 90.48 23.21 87.56 24.89 87.56 28.27 90.48 29.95 93.41 28.27"/><polygon class="cls-4" points="80.86 26.17 80.86 22.79 77.94 21.11 75.02 22.79 75.02 26.17 77.94 27.85 80.86 26.17"/><polygon class="cls-4" points="103.95 33.98 103.95 30.61 101.03 28.92 98.11 30.61 98.11 33.98 101.03 35.66 103.95 33.98"/><circle class="cls-5" cx="69.31" cy="42.38" r="7.49"/><circle class="cls-5" cx="90.62" cy="42.38" r="7.49"/><circle class="cls-5" cx="111.92" cy="42.38" r="7.49"/><polygon class="cls-4" points="53.85 24.56 53.85 20.7 49.99 16.84 49.28 17.55 52.85 21.11 52.85 24.54 49.42 24.54 45.85 20.98 45.15 21.69 49.01 25.54 52.86 25.54 61.67 34.35 61.95 34.07 62.37 33.64 62.65 33.36 53.85 24.56"/><circle class="cls-6" cx="69.31" cy="42.38" r="2.6"/><circle class="cls-6" cx="90.62" cy="42.38" r="2.6"/><circle class="cls-6" cx="111.92" cy="42.38" r="2.6"/><path class="cls-7" d="M61.71,75.26c0,2.28-3,1.06-4.22,1.31-2.52.53-5.28,1-11.89-.75-2.75-.74-6.67,1.33-9.79,1.24-5.53-.15-7.77-2.27-11.11-.89-2.46,1-6.75-.29-8.58-.36C13.71,75.74,9.74,77,10,74.72s3.32-1.71,3.65-2.94C16.16,62.41,23.73,54.7,36.29,55c12.94.35,21.57,8,23.13,17.91C59.58,73.92,61.74,73.6,61.71,75.26Z" transform="translate(-9.99 -24.84)"/><path class="cls-8" d="M33,67.44c-.16.45-.75.36-1.1.74a2.06,2.06,0,0,0,.54,2.69c.52.19.75-.5,1.68-.63,1.31-.18,1.79,1.07,3,.85.86-.15.82-.82,1.76-.94s1.54.56,2.06.2a1.19,1.19,0,0,0,.36-1.24c-.19-.6-.83-.48-1.65-1.32-.56-.57-.41-.77-.91-1.16A3,3,0,0,0,36.79,66c-1,0-1,.43-2.1.5A2.1,2.1,0,0,0,33,67.44Z" transform="translate(-9.99 -24.84)"/></g></svg>