<svg id="Layer_1" data-name="Layer 1" xmlns="http://www.w3.org/2000/svg" viewBox="0 0 22.09 47"><defs><style>.cls-1{fill:#fff;}</style></defs><title>icon-scroll</title><path class="cls-1" d="M19.46,1h9.08A6.52,6.52,0,0,1,35,7.51V26.85a6.52,6.52,0,0,1-6.51,6.51H19.46A6.52,6.52,0,0,1,13,26.85V7.51A6.52,6.52,0,0,1,19.46,1Zm9.08,1.45H19.46A5.08,5.08,0,0,0,14.4,7.51V26.85a5.08,5.08,0,0,0,5.06,5.06h9.08a5.08,5.08,0,0,0,5.06-5.06V7.51a5.08,5.08,0,0,0-5.06-5.06Z" transform="translate(-12.96 -1)"/><polygon class="cls-1" points="11.77 6.58 11.77 12.8 10.32 12.8 10.32 6.58 11.77 6.58"/><polygon class="cls-1" points="4.22 36.42 11.03 41.07 17.85 36.15 18.7 37.32 11.05 42.83 3.41 37.61 4.22 36.42"/><polygon class="cls-1" points="4.22 40.59 11.03 45.24 17.85 40.32 18.7 41.49 11.05 47 3.41 41.78 4.22 40.59"/></svg>