<svg id="Layer_1" data-name="Layer 1" xmlns="http://www.w3.org/2000/svg" xmlns:xlink="http://www.w3.org/1999/xlink" viewBox="0 0 463.63 398"><defs><style>.cls-1{fill:url(#radial-gradient);}.cls-2{fill:url(#radial-gradient-2);}.cls-3{fill:url(#radial-gradient-3);}.cls-4{fill:url(#radial-gradient-4);}.cls-5{fill:url(#linear-gradient);}.cls-6{fill:url(#radial-gradient-5);}.cls-7{fill:#959ba0;}.cls-8{fill:#2c3051;}.cls-9{fill:#ce242b;}.cls-10{fill:#fff;}.cls-11{opacity:0.1;}.cls-12{fill:#3b3f63;}.cls-13{fill:#394266;}</style><radialGradient id="radial-gradient" cx="123.85" cy="149.59" r="80.88" gradientUnits="userSpaceOnUse"><stop offset="0" stop-color="#f5deb5"/><stop offset="0.88" stop-color="#f5eee1"/></radialGradient><radialGradient id="radial-gradient-2" cx="140.73" cy="134.34" r="60.63" gradientUnits="userSpaceOnUse"><stop offset="0" stop-color="#fff" stop-opacity="0"/><stop offset="1" stop-color="#e0f4ff" stop-opacity="0.5"/></radialGradient><radialGradient id="radial-gradient-3" cx="141.63" cy="305.88" r="129.44" gradientUnits="userSpaceOnUse"><stop offset="0" stop-color="#ccc"/><stop offset="1" stop-color="#fff"/></radialGradient><radialGradient id="radial-gradient-4" cx="47.26" cy="260.15" r="65.72" xlink:href="#radial-gradient-3"/><linearGradient id="linear-gradient" x1="522.34" y1="321.06" x2="530.09" y2="321.06" gradientTransform="translate(85.92 -113.89) rotate(12.83)" gradientUnits="userSpaceOnUse"><stop offset="0" stop-color="#f5eee1"/><stop offset="1" stop-color="#f5deb5"/></linearGradient><radialGradient id="radial-gradient-5" cx="226.85" cy="226.83" r="60.58" xlink:href="#radial-gradient-3"/></defs><title>majortom-flag</title><polygon class="cls-1" points="180 181 178 116 102 116 108 127 100 181 158 190 180 181"/><polygon class="cls-2" points="76.23 175.84 76.23 109.83 108.23 79.83 174.23 77.83 205.23 106.83 200.23 173.84 160.23 190.84 76.23 175.84"/><polygon class="cls-3" points="74 173 70 280 42 333 23 378 11 394 69 398 83 388 88 339 111.38 303.1 170.79 300.7 192.17 314.95 197.82 342.53 193.82 355.53 233.82 376.53 263.82 362.53 249.82 339.53 233.42 284 191 262 202 170 159 187 74 173"/><polygon class="cls-4" points="6 272 31 229 76 176 79 231 58 244 41 280 41 294 27 309 0 300 6 272"/><path class="cls-5" d="M530,323.18a44.59,44.59,0,0,1-4.42-1.54l-1.85-5.79,3.21-4.58a30.85,30.85,0,0,1,3.41-1.27" transform="translate(-424 -173)"/><path d="M586,334.38c-8.85,3.83-14.16,4.52-18.34,2.63A9.85,9.85,0,0,0,579,338.8C585.29,335.82,586,334.38,586,334.38Z" transform="translate(-424 -173)"/><polygon points="141.07 137.25 146.1 136.59 146.3 147.15 141.27 147.8 141.07 137.25"/><polygon points="158.44 136.31 163.47 135.65 163.59 146.69 158.56 147.35 158.44 136.31"/><polygon class="cls-6" points="201 176 247 180 274 172 277 153 293 160 307 156 309 170 306 180 304 196 286 199 245 212 196 216 201 176"/><polygon class="cls-7" points="288.82 11.23 294.25 0 299 11.23 294.51 172.74 292.21 365.14 286.79 365.14 288.82 169.46 288.82 153.67 288.82 149.75 288.82 11.23"/><polygon class="cls-8" points="297.18 17.45 348.27 2.55 415.09 22.52 463.63 22.23 423.22 48.23 349.58 61.22 295.69 77.73 297.18 17.45"/><polygon class="cls-9" points="49.28 345.31 37.65 343.3 23 378 11 394 69 398 83 388 87.56 343.3 49.28 345.31"/><polygon class="cls-9" points="233.82 376.53 263.82 362.53 249.82 339.53 243.32 317.53 235.88 321.93 196.61 320.06 193.32 320.09 197.82 342.53 193.82 355.53 233.82 376.53"/><polygon class="cls-9" points="48.19 264.78 49.76 261.45 21.86 244.72 19.82 248.23 48.19 264.78"/><polygon class="cls-9" points="264.19 205.68 268.36 204.4 265.44 174.49 261.26 175.7 264.19 205.68"/><path class="cls-10" d="M707.32,328.76,717,333s0,18-1,18-12,2-12,2Z" transform="translate(-424 -173)"/><g class="cls-11"><polygon class="cls-12" points="157.72 227.5 151.77 221.43 146.22 227 146.54 230.01 157.71 236.31 157.72 227.5 157.72 227.5"/><polygon class="cls-12" points="151.78 214.3 157.72 220.29 157.73 220.29 157.74 207.99 144.67 212.7 145.53 220.67 151.78 214.3"/><polygon class="cls-8" points="163.68 221.44 157.72 227.5 157.71 236.31 157.71 236.31 168.89 230.18 169.26 227.06 163.68 221.44"/><polygon class="cls-8" points="163.69 214.31 170 220.78 170.95 212.72 157.74 207.99 157.74 207.99 157.73 220.29 163.69 214.31"/></g><polygon class="cls-10" points="355.37 54.74 340.25 44.42 350.19 30.16 336.57 20.36 348.27 2.55 333.48 6.86 322.73 22.97 336.2 32.8 326.41 47.03 344.8 62.69 349.58 61.22 361.69 59.09 355.37 54.74"/><polygon class="cls-13" points="361.67 59.09 423.22 48.23 423.28 48.19 415.12 22.52 415.09 22.52 348.28 2.56 361.67 59.09"/></svg>