<svg xmlns="http://www.w3.org/2000/svg" xmlns:xlink="http://www.w3.org/1999/xlink" viewBox="0 0 516.17 594.54"><defs><style>.cls-1{fill:url(#linear-gradient);}.cls-2{fill:url(#linear-gradient-2);}.cls-3{fill:#fff;}.cls-4{fill:url(#radial-gradient);}.cls-5{fill:url(#linear-gradient-3);}.cls-6{fill:url(#linear-gradient-4);}.cls-7{fill:url(#linear-gradient-5);}.cls-8{fill:#a54457;}.cls-9{fill:url(#linear-gradient-6);}.cls-10{fill:url(#linear-gradient-7);}.cls-11{fill:url(#linear-gradient-8);}.cls-12{fill:url(#linear-gradient-9);}.cls-13{fill:url(#linear-gradient-10);}.cls-14{opacity:0.1;}.cls-15{fill:#3b3f63;}.cls-16{fill:#2c3051;}</style><linearGradient id="linear-gradient" x1="435.93" y1="534.4" x2="393.51" y2="634.67" gradientTransform="matrix(1, 0.03, -0.03, 1, 17.66, -11.81)" gradientUnits="userSpaceOnUse"><stop offset="0" stop-color="#fff"/><stop offset="0.25" stop-color="#f2f2f2"/><stop offset="1" stop-color="#ccc"/></linearGradient><linearGradient id="linear-gradient-2" x1="350.11" y1="219.14" x2="448.11" y2="133.14" gradientUnits="userSpaceOnUse"><stop offset="0" stop-color="#fff"/><stop offset="1" stop-color="#ccc"/></linearGradient><radialGradient id="radial-gradient" cx="559.67" cy="378.66" r="127.01" gradientUnits="userSpaceOnUse"><stop offset="0" stop-color="#fff" stop-opacity="0"/><stop offset="1" stop-color="#fff" stop-opacity="0.5"/></radialGradient><linearGradient id="linear-gradient-3" x1="570.55" y1="465.71" x2="551.88" y2="333.71" gradientUnits="userSpaceOnUse"><stop offset="0" stop-color="#f5eee1"/><stop offset="1" stop-color="#f5deb5"/></linearGradient><linearGradient id="linear-gradient-4" x1="281.64" y1="192.53" x2="317.55" y2="401.43" xlink:href="#linear-gradient-2"/><linearGradient id="linear-gradient-5" x1="482.56" y1="408.7" x2="500.83" y2="408.7" xlink:href="#linear-gradient-3"/><linearGradient id="linear-gradient-6" x1="412.59" y1="10.31" x2="510.59" y2="243.64" gradientUnits="userSpaceOnUse"><stop offset="0" stop-color="#ffabae"/><stop offset="0.98" stop-color="#c2292f"/><stop offset="1" stop-color="#c1272d"/></linearGradient><linearGradient id="linear-gradient-7" x1="262.14" y1="455.73" x2="211.48" y2="622.4" xlink:href="#linear-gradient-6"/><linearGradient id="linear-gradient-8" x1="467.56" y1="366.05" x2="453" y2="536.56" xlink:href="#linear-gradient-6"/><linearGradient id="linear-gradient-9" x1="471.81" y1="90.87" x2="448.39" y2="173.51" xlink:href="#linear-gradient-2"/><linearGradient id="linear-gradient-10" x1="46.81" y1="335.22" x2="48.88" y2="389.99" xlink:href="#linear-gradient-6"/></defs><title>majortom-header</title><g id="Layer_10_copy" data-name="Layer 10 copy"><path class="cls-1" d="M448.79,488.56l-69.37,82.86L344.13,681.85l4.4,11.68,46.25,11,3.52-11.78,9.68-2,1.2-23.72,25.73-75.27c-.25-1.23,28.3-33.19,28.3-33.19" transform="translate(-344.13 -263.13)"/><polygon class="cls-2" points="359.74 231.06 433.76 202.87 506.34 116.21 504.75 99.22 460.24 75.47 451.01 89.26 437.55 85.28 431.38 118.21 403.09 155.54 350.46 175.4 359.74 231.06"/><path class="cls-3" d="M757.18,479.4" transform="translate(-344.13 -263.13)"/><path class="cls-4" d="M482,494.19s114.89-.81,174-19.59a267.45,267.45,0,0,0,41.21-16.8c-5-45.84-17.54-150.14-17.54-150.14l-67.44-44.54L457,295l-34.87,61.33,24.21,122.51Z" transform="translate(-344.13 -263.13)"/><path class="cls-5" d="M506.13,472.11s-5.94-37.19-21.12-105.5l-11.68-12.2L625.19,321l25.48,135.14-90.93,22.71H501.36Z" transform="translate(-344.13 -263.13)"/><polygon class="cls-6" points="102.21 215.71 146.37 427 183.37 505.37 178.21 558.32 190.21 594.54 285.05 572.8 271.35 547.87 275.84 487.87 244.13 413.17 329.74 390.28 388.87 436.37 413.05 506.37 438.37 527.37 516.17 489.87 486.87 462.87 462.37 394.37 373.3 309.76 350.91 175.4 261.8 197.13 102.21 215.71"/><path class="cls-7" d="M500.83,423.95a105.15,105.15,0,0,1-11-1.22l-7.29-12.35,5-12.21a72.74,72.74,0,0,1,7.18-4.72" transform="translate(-344.13 -263.13)"/><path d="M615.48,416.59l-23.32,7.73s-13.53,4.07-20.65,4.85l3.41,12.71,5.79,7.31L593,447l19-3.78c-.27-2.53-4-16.14-3.89-17.25S615.48,416.59,615.48,416.59Z" transform="translate(-344.13 -263.13)"/><polygon points="216.45 118.11 227.69 115.62 230.25 139.4 219.01 141.9 216.45 118.11"/><polygon points="250.16 110.63 261.4 108.14 263.87 133.04 252.63 135.53 250.16 110.63"/><path class="cls-8" d="M766.16,463.85" transform="translate(-344.13 -263.13)"/><polygon class="cls-9" points="453.27 180.1 506.79 116.21 505.2 99.22 460.69 75.47 451.46 89.26 438 85.28 431.82 118.21 413.05 142.99 453.27 180.1"/><polygon class="cls-10" points="285.05 572.8 271.35 547.87 274.24 509.2 180.92 530.5 178.21 558.32 190.21 594.54 285.05 572.8"/><polygon class="cls-11" points="477.38 436.33 399.7 467.71 413.05 506.37 438.37 527.37 516.17 489.87 486.87 462.87 477.38 436.33"/><polygon class="cls-12" points="457.83 174.67 506.79 116.21 505.2 99.22 460.69 75.47 451.46 89.26 438 85.28 431.82 118.21 415.98 139.12 457.83 174.67"/><polygon class="cls-13" points="75 377.82 76.73 372.23 21.05 355.56 19.28 361.72 75 377.82"/><g class="cls-14"><polygon class="cls-15" points="267.77 270.71 253.73 261.27 245.16 274.38 247.01 280.1 271.31 287.88 267.77 270.71 267.77 270.71"/><polygon class="cls-15" points="250.87 247.37 264.88 256.66 264.88 256.66 259.94 232.67 236.38 247.11 241.27 262.31 250.87 247.37"/><polygon class="cls-16" points="276.94 256.49 267.77 270.71 271.31 287.88 271.31 287.88 290.62 271.43 290.08 265.19 276.94 256.49"/><polygon class="cls-16" points="274.08 242.59 289 252.65 287.6 236.56 259.94 232.67 259.94 232.67 264.88 256.66 274.08 242.59"/></g></g></svg>