<svg id="Layer_1" data-name="Layer 1" xmlns="http://www.w3.org/2000/svg" viewBox="0 0 442.26 514.61"><defs><style>.cls-1{fill:#b3b3b3;}.cls-2{fill:#9e005d;}.cls-3{fill:#e6e6e6;}.cls-4{fill:#ccc;}.cls-5{fill:#b5006b;}</style></defs><title>ship</title><polygon class="cls-1" points="159.26 326.61 78.26 390.61 19.26 397.61 39.26 478.61 178.26 478.61 159.26 326.61"/><polygon class="cls-2" points="59.53 492.61 32.53 492.61 0 381.61 27 381.61 59.53 492.61"/><polygon class="cls-1" points="283 327.11 364 391.11 423 398.11 403 479.11 264 479.11 283 327.11"/><polygon class="cls-2" points="382.74 493.11 409.74 493.11 442.26 382.11 415.26 382.11 382.74 493.11"/><polygon class="cls-3" points="221.26 0 135.26 145.61 179.26 514.61 221.26 514.61 221.26 0"/><polygon class="cls-4" points="221.26 0 307.26 145.61 263.26 514.61 221.26 514.61 221.26 0"/><polygon class="cls-4" points="221.24 112.06 185.26 139.6 185.26 195.47 221.24 223.01 221.24 112.06"/><polygon class="cls-3" points="221.24 112.06 221.24 223.01 221.76 223.41 258.26 195.47 258.26 139.6 221.76 111.67 221.24 112.06"/><polygon class="cls-2" points="190.26 143.43 190.26 191.65 221.76 215.76 253.26 191.65 253.26 143.43 221.76 119.32 190.26 143.43"/><polygon class="cls-5" points="221.26 119.7 190.26 143.43 190.26 191.65 221.26 215.37 221.26 119.7"/></svg>